<svg xmlns="http://www.w3.org/2000/svg" width="208" height="50.197" viewBox="0 0 208 50.197">
  <g id="Layer_2" data-name="Layer 2" transform="translate(-0.041 0.02)">
    <g id="Layer_1" data-name="Layer 1" transform="translate(0.041 -0.02)">
      <g id="Wordmark" transform="translate(55.696 6.947)">
        <path id="Path_54" data-name="Path 54" d="M864.087,127.257a6.808,6.808,0,0,1,6.925,6.238H856.646a7.139,7.139,0,0,1,7.441-6.238m6.466,12.546a7.046,7.046,0,0,1-6.122,3.026c-4,0-7.056-2.193-7.786-6.065H874.67a10.9,10.9,0,0,0,.132-1.677c0-6.022-4.21-11.357-10.712-11.357a10.926,10.926,0,0,0-11.27,11.315c0,6.447,4.6,11.315,11.528,11.315a10.845,10.845,0,0,0,9.464-4.868Z" transform="translate(-796.32 -114.395)" fill="#006bff"/>
        <rect id="Rectangle_15" data-name="Rectangle 15" width="3.742" height="31.403" transform="translate(50.988)" fill="#006bff"/>
        <path id="Path_55" data-name="Path 55" d="M1052.357,132.61v13.205h-3.743V132.824c0-3.527-2.021-5.506-5.333-5.506-3.442,0-6.238,2.022-6.238,7.1v11.4H1033.3V124.309h3.743v3.1a7.649,7.649,0,0,1,6.973-3.656c5.032,0,8.345,3.355,8.345,8.862" transform="translate(-953.055 -114.413)" fill="#006bff"/>
        <path id="Path_56" data-name="Path 56" d="M1209.494,73.428a7.636,7.636,0,1,0-7.657,7.7,7.524,7.524,0,0,0,7.657-7.7m3.742-20.648v31.4h-3.742v-3.7a9.29,9.29,0,0,1-8.131,4.26,11.323,11.323,0,0,1,0-22.629,9.305,9.305,0,0,1,8.131,4.259V52.78Z" transform="translate(-1089.555 -52.78)" fill="#006bff"/>
        <rect id="Rectangle_16" data-name="Rectangle 16" width="3.742" height="31.403" transform="translate(126.698)" fill="#006bff"/>
        <path id="Path_57" data-name="Path 57" d="M634.714,135.035a7.636,7.636,0,1,0-7.657,7.7,7.524,7.524,0,0,0,7.657-7.7m3.743-10.752v21.506h-3.743v-3.7a9.289,9.289,0,0,1-8.13,4.26,11.323,11.323,0,0,1,0-22.629,9.3,9.3,0,0,1,8.13,4.259v-3.7Z" transform="translate(-590.396 -114.387)" fill="#006bff"/>
        <path id="Path_58" data-name="Path 58" d="M443.126,84.34a11.647,11.647,0,1,1,3.368-19.922,11.448,11.448,0,0,1,1.773,1.831l3.238-2.368a15.679,15.679,0,1,0-2.858,21.925L446.493,82.4a11.752,11.752,0,0,1-3.367,1.941" transform="translate(-423.374 -57.077)" fill="#006bff"/>
        <path id="Path_59" data-name="Path 59" d="M1448.95,128v12.207c0,3.947-2.3,6.447-5.8,6.447s-6.043-2.5-6.043-6.447V128h-3.787v11.841c0,6.2,3.866,10.233,9.829,10.233,5.157,0,5.963-3.263,5.963-3.344v4.392c0,4.351-1.893,6.809-5.842,6.809a5.814,5.814,0,0,1-5.789-5.026l-3.385,1.184a9.411,9.411,0,0,0,9.181,7.266c6.123,0,9.473-4.03,9.473-10.233V128Z" transform="translate(-1300.446 -118.104)" fill="#006bff"/>
      </g>
      <g id="Brand_mark" data-name="Brand mark" transform="translate(0)">
        <path id="Path_60" data-name="Path 60" d="M72.189,74.745a9.058,9.058,0,0,1-6.49,2.864H63.752A8.379,8.379,0,0,1,57.719,75.2,8.236,8.236,0,0,1,55.4,69.353V66.689a8.236,8.236,0,0,1,2.323-5.847,8.378,8.378,0,0,1,6.034-2.408H65.7a9.05,9.05,0,0,1,6.49,2.863,7.9,7.9,0,0,0,6.216,2.466,9.875,9.875,0,0,0,1.562-.125l-.009-.031a11.781,11.781,0,0,0-.722-1.484l-2.3-3.977a11.8,11.8,0,0,0-10.215-5.9H62.133a11.8,11.8,0,0,0-10.215,5.9l-2.3,3.977a11.8,11.8,0,0,0,0,11.795l2.3,3.977a11.8,11.8,0,0,0,10.215,5.9h4.593a11.8,11.8,0,0,0,10.215-5.9l2.3-3.97a11.782,11.782,0,0,0,.722-1.484l.012-.029a9.736,9.736,0,0,0-1.564-.132,7.877,7.877,0,0,0-6.216,2.466" transform="translate(-41.727 -45.373)" fill="#006bff"/>
        <path id="Path_61" data-name="Path 61" d="M130.17,117.61h-1.947a5.677,5.677,0,0,0-5.943,5.84v2.664a5.677,5.677,0,0,0,5.943,5.84h1.947c5.226,0,4.815-5.328,12.707-5.328a12.055,12.055,0,0,1,2.229.205,11.781,11.781,0,0,0,0-4.1,12.171,12.171,0,0,1-2.229.205c-7.894,0-7.481-5.328-12.707-5.328" transform="translate(-106.198 -102.134)" fill="#006bff"/>
        <path id="Path_62" data-name="Path 62" d="M43.482,26.625a11,11,0,0,0-4.532-1.948c0,.014,0,.026,0,.039a11.8,11.8,0,0,1-.658,2.3,8.628,8.628,0,0,1,3.747,1.543.134.134,0,0,1-.011.036,20.2,20.2,0,1,1,0-11.924.111.111,0,0,0,.011.036,8.611,8.611,0,0,1-3.747,1.542,11.881,11.881,0,0,1,.658,2.3.306.306,0,0,0,0,.037,11,11,0,0,0,4.532-1.947,2.171,2.171,0,0,0,.846-2.676,22.646,22.646,0,1,0,0,13.345,2.171,2.171,0,0,0-.846-2.676" transform="translate(-0.041 0.02)" fill="#006bff"/>
        <path id="Path_63" data-name="Path 63" d="M128.505,104.488a9.738,9.738,0,0,1-1.564.132,7.872,7.872,0,0,1-6.215-2.466,9.056,9.056,0,0,0-6.491-2.864h-1.947a8.376,8.376,0,0,0-6.034,2.409,8.236,8.236,0,0,0-2.323,5.847v2.664a8.236,8.236,0,0,0,2.323,5.847,8.375,8.375,0,0,0,6.034,2.408h1.947a9.056,9.056,0,0,0,6.491-2.863,7.894,7.894,0,0,1,6.215-2.466,9.877,9.877,0,0,1,1.562.125,11.708,11.708,0,0,0,.66-2.3.355.355,0,0,0,0-.039,12.172,12.172,0,0,0-2.229-.2c-7.894,0-7.481,5.33-12.707,5.33H112.28a5.678,5.678,0,0,1-5.943-5.842V107.54a5.677,5.677,0,0,1,5.943-5.84h1.947c5.226,0,4.815,5.327,12.707,5.327a12.056,12.056,0,0,0,2.229-.2v-.037a11.88,11.88,0,0,0-.658-2.3" transform="translate(-90.262 -86.224)" fill="#0ae8f0"/>
        <path id="Path_64" data-name="Path 64" d="M128.505,104.488a9.738,9.738,0,0,1-1.564.132,7.872,7.872,0,0,1-6.215-2.466,9.056,9.056,0,0,0-6.491-2.864h-1.947a8.376,8.376,0,0,0-6.034,2.409,8.236,8.236,0,0,0-2.323,5.847v2.664a8.236,8.236,0,0,0,2.323,5.847,8.375,8.375,0,0,0,6.034,2.408h1.947a9.056,9.056,0,0,0,6.491-2.863,7.894,7.894,0,0,1,6.215-2.466,9.877,9.877,0,0,1,1.562.125,11.708,11.708,0,0,0,.66-2.3.355.355,0,0,0,0-.039,12.172,12.172,0,0,0-2.229-.2c-7.894,0-7.481,5.33-12.707,5.33H112.28a5.678,5.678,0,0,1-5.943-5.842V107.54a5.677,5.677,0,0,1,5.943-5.84h1.947c5.226,0,4.815,5.327,12.707,5.327a12.056,12.056,0,0,0,2.229-.2v-.037a11.88,11.88,0,0,0-.658-2.3" transform="translate(-90.262 -86.224)" fill="#0ae8f0"/>
      </g>
    </g>
  </g>
</svg>
