<svg xmlns="http://www.w3.org/2000/svg" width="32" height="32" viewBox="0 0 32 32">
  <g id="Group_4422" data-name="Group 4422" transform="translate(-6767 266)">
    <circle id="Ellipse_88" data-name="Ellipse 88" cx="16" cy="16" r="16" transform="translate(6767 -266)" fill="#270f13"/>
    <path id="Path_71" data-name="Path 71" d="M-6.941-15.4h2.42V0h-2.42Zm4.664,0H1.287a3.524,3.524,0,0,1,2.706.968,4.02,4.02,0,0,1,.9,2.838v1.518a4.02,4.02,0,0,1-.9,2.838,3.524,3.524,0,0,1-2.706.968H.143V0h-2.42ZM1.287-8.47a1.138,1.138,0,0,0,.891-.33,1.673,1.673,0,0,0,.3-1.122v-1.826a1.673,1.673,0,0,0-.3-1.122,1.138,1.138,0,0,0-.891-.33H.143v4.73ZM4.609-2.332H6.941V0H4.609Z" transform="translate(6784 -242)" fill="#ff9ead"/>
  </g>
</svg>
