<svg xmlns="http://www.w3.org/2000/svg" xmlns:xlink="http://www.w3.org/1999/xlink" width="1920" height="902.733" viewBox="0 0 1920 902.733">
  <defs>
    <clipPath id="clip-path">
      <rect id="Rectangle_10" data-name="Rectangle 10" width="1920" height="902.733" transform="translate(0 47.267)" fill="none"/>
    </clipPath>
  </defs>
  <g id="Group_32" data-name="Group 32" transform="translate(0 -47.267)">
    <g id="Group_60" data-name="Group 60" clip-path="url(#clip-path)">
      <path id="Rectangle_4" data-name="Rectangle 4" d="M0,0H1920V902.733H0Z" transform="translate(0 47.267)" fill="#f0d6cb" opacity="0.3"/>
      <path id="Path_35" data-name="Path 35" d="M1338.169,874.809c-34.289,36.135-53.233,72.276-56.866,115.068h958.2V252.959c-26.3-10.091-44.876-27.433-65.966-41.939-31.693-21.8-70.853-23.41-112.847-20.106-39.631,3.116-66.913,18.056-90.787,39.574-24.013,21.644-40.455,49.294-79.441,59.473-39.675,10.357-61.41,36.676-97.57,53.115-36.706,16.687-83.212,23.76-118.257,41.559-24.234,12.308-42.057,31.575-66.961,44.8-54.266,28.824-113.6,55.929-131.613,105.073-12.245,33.417,5.477,62.838,17.925,95.023,16.76,43.336,11.862,88.787-17.757,128.754C1443.878,801.955,1377.362,833.509,1338.169,874.809Z" transform="translate(-303.703 -29.127)" fill="#f0d6cb" opacity="0.2"/>
      <g id="Group_51" data-name="Group 51" transform="translate(20 163.012)">
        <path id="Path_36" data-name="Path 36" d="M1729.246,599.334c6.159,17.535,35.072,30.9,52.039,33.116,20.982,2.764,46.2-3.785,66.516,3.639,7.763,2.839,15.511,7.109,11.713,15.063-3.36,7.031-11.6,10.1-18.443,12.421-8.6,2.924-17.975,5.427-26.9,4.384-10.136-1.188-18.749-6.653-28.388-9.588a147.068,147.068,0,0,1-37.354-17.157c-6.951-4.4-16.38-8.469-21.654-14.911-9.193,12.91,9.918,40.649,16.756,51.7,8.3,13.49,20.354,29.268,37.23,31.4,15.4,1.95,34.111-2.952,48.1-9.128,7.086-3.139,50.172-25.407,43.554-7.135-4.815,13.332-22.458,22.92-34.707,26.869-19.586,6.31-43.521,13.143-64.114,12.771.918,7.6,11.635,15.182,17.316,20.038,9.92,8.469,17.491,15.8,30.4,19.267,16.091,4.326,32.316-3.275,44.809-13.39,6.833-5.528,26.752-39.112,36.329-34.106,13.011,6.8-7.465,31.459-12.68,36.641-5.81,5.779-12.137,10.715-18.31,16.139-6.486,5.683-10.585,13.937-17.168,19.337.539-.434,17.588,3.476,19.749,3.507,26.654.411,52.49-12.725,65.557-36.373,7.761-14.038,5.053-25.832,8.337-40.3,4.743-20.9,22.251.807,32.528,5.933,16.643,8.3,31.625,13.627,50.206,7.1,25.281-8.874,39.432-33.927,43.14-58.713,1.416-9.519,7.183-25.631,2.459-34.433-4.73,3.506-8.485,7.7-12.716,11.977-8.362,8.489-32.15,23.118-44.092,15.371-13.573-8.8,11.241-25.761,18.368-31.827,19.462-16.584,38.548-28.643,27.68-56.829-1.009-2.613-8.477-13.9-7.707-16.083-5.579,15.8-13.75,28.886-24.151,41.335-8.739,10.027-31.306,31.022-46.03,22.6-15.327-8.809,18.259-30.229,24.663-35.619,10.97-9.365,25.465-22.557,30.194-37.139,6.456-19.649-8.676-39.07-16.52-56.115-6.042,19.048-11.709,40.13-20.4,59.13-5.483,10.495-31.494,41.6-45.436,23.03-10.719-15.464,21.051-38.132,28.154-48.4,10.273-16.117,19.285-42.031,17.572-60.188-2.411-24.9-28.746-33.313-49.416-39.577,7.942,23.364,16.431,49.782,11.923,74.349-2.231,10.963-8.721,25.081-19.69,31.028-12.661,6.87-22.874.464-17.857-15.5,6.036-19.191,18.927-45.4,12.71-73.822-6.172-31.076-29.95-34.137-56.51-40.925-25.37-5.943-49.88-13.1-66.418-34.375,5.986,18.442,7.91,35.891-10.574,50.734a96.918,96.918,0,0,0-20.045,21.844c-6.46,8.045-4.415,19.286-1.121,28.71,8.165,21.736,30.568,22.956,43.7,40.1,4.786,5.983,7.884,14.4-.924,18.107-8.422,3.107-21.275-6.692-27.319-10.862-16.851-14.365-29.533-34.754-40.818-53.287-5.934,13.743-15.553,27.634-17.658,42.263-2.547,17.878,12.5,30.982,24.522,41.99,12.806,12.451,29.027,17.426,46.065,21.188,9.941,2.416,46.354,5.3,38.5,23.079-7.62,17.271-28.433,8.114-41.685,4.957-17.646-4.2-30.833-14.678-44.947-25.64-6.039-4.707-41.014-39.476-38.3-45.282C1729.985,533.753,1716.392,562.743,1729.246,599.334Z" transform="translate(0)" fill="#f8ddd0"/>
        <g id="Group_48" data-name="Group 48" transform="translate(1834.229 400.454)">
          <path id="Path_37" data-name="Path 37" d="M1856.553,406.772c14.415,18.129,24.545,39.12,33.258,60.459,4.176,10.233,8,20.607,11.853,30.965,4.019,10.812,8.931,21.2,13.536,31.767,4.93,11.311,8.23,23.194,12.461,34.777,4.33,11.86,8.775,23.678,13.029,35.566,8.438,23.591,16.918,47.426,24.083,71.43,3.019,10.112,6.265,20.142,11.246,29.484.48.9,1.844.1,1.364-.8-5.827-10.929-9.187-22.8-12.731-34.606-3.595-11.975-7.978-23.82-12.072-35.638-8.291-23.921-16.838-47.714-25.454-71.522-3.906-10.789-7.091-21.625-11.723-32.145-4.91-11.146-9.783-22.2-14.032-33.624-7.652-20.571-15.537-41.123-26.044-60.437a185.114,185.114,0,0,0-17.655-26.8c-.634-.8-1.744.329-1.117,1.117Z" transform="translate(-1856.367 -405.381)" fill="#f8ddd0"/>
        </g>
        <g id="Group_49" data-name="Group 49" transform="translate(1929.612 476.786)">
          <path id="Path_38" data-name="Path 38" d="M2026.423,497.757c1.351,10.905-1.006,21.7-4.791,31.9a122.925,122.925,0,0,1-7.061,14.976c-2.811,5.276-7.415,9.546-11.2,14.109-7.109,8.572-14.193,17.33-20.975,26.16a58.337,58.337,0,0,0-11.53,28.181c-.135,1.007,1.447.995,1.58,0,1.63-12.29,7.031-22.143,14.807-31.584,7.544-9.159,14.611-18.7,22.41-27.64,6.376-7.312,10.6-15.982,13.956-25.034,3.657-9.854,5.683-20.571,4.383-31.068-.123-1-1.7-1.009-1.58,0Z" transform="translate(-1970.858 -497.005)" fill="#f8ddd0"/>
        </g>
        <g id="Group_50" data-name="Group 50" transform="translate(1774.756 529.217)">
          <path id="Path_39" data-name="Path 39" d="M1785.382,561.395c9.1,4.539,16.606,11.284,25.163,16.644,9.023,5.653,18.6,9.554,28.661,12.908,10.485,3.494,21.063,6.72,31.507,10.332,10.835,3.746,20.871,9.507,31.081,14.638.907.456,1.708-.906.8-1.364-9.073-4.562-17.988-9.443-27.407-13.271-10.6-4.305-21.8-7.337-32.666-10.9-10.475-3.441-20.436-7.276-29.934-12.946-9.084-5.423-16.87-12.647-26.4-17.4-.909-.453-1.708.909-.8,1.364Z" transform="translate(-1784.98 -559.94)" fill="#f8ddd0"/>
        </g>
      </g>
      <g id="Group_61" data-name="Group 61" transform="matrix(-0.891, 0.454, -0.454, -0.891, 1852.985, -213.716)">
        <path id="Path_36-2" data-name="Path 36" d="M1726.807,500.747c3.442,9.8,19.6,17.267,29.082,18.507,11.726,1.545,25.819-2.115,37.173,2.034,4.338,1.587,8.668,3.973,6.546,8.418-1.878,3.93-6.485,5.646-10.307,6.941-4.8,1.634-10.045,3.033-15.03,2.45-5.665-.664-10.478-3.718-15.865-5.358a82.194,82.194,0,0,1-20.875-9.588c-3.885-2.456-9.154-4.733-12.1-8.333-5.138,7.215,5.543,22.717,9.364,28.893,4.64,7.539,11.375,16.356,20.806,17.547,8.605,1.09,19.063-1.65,26.878-5.1,3.96-1.754,28.039-14.2,24.34-3.987-2.691,7.451-12.551,12.809-19.4,15.016-10.945,3.526-24.322,7.345-35.83,7.137.513,4.245,6.5,8.485,9.677,11.2,5.544,4.733,9.775,8.831,16.987,10.768,8.993,2.418,18.06-1.83,25.042-7.483,3.818-3.089,14.95-21.858,20.3-19.06,7.272,3.8-4.172,17.581-7.086,20.477-3.247,3.23-6.783,5.988-10.233,9.019-3.625,3.176-5.915,7.789-9.594,10.807.3-.243,9.829,1.943,11.037,1.96,14.9.23,29.334-7.111,36.637-20.327,4.338-7.845,2.824-14.436,4.659-22.522,2.65-11.682,12.435.451,18.178,3.316,9.3,4.639,17.673,7.616,28.058,3.971,14.128-4.959,22.037-18.961,24.109-32.812.792-5.32,4.014-14.324,1.374-19.243a62.769,62.769,0,0,0-7.106,6.693c-4.673,4.744-17.967,12.92-24.641,8.59-7.585-4.917,6.282-14.4,10.266-17.787,10.876-9.268,21.543-16.007,15.469-31.759-.564-1.461-4.737-7.767-4.307-8.988a73.563,73.563,0,0,1-13.5,23.1c-4.884,5.6-17.5,17.337-25.724,12.631-8.565-4.923,10.2-16.894,13.783-19.906,6.131-5.234,14.231-12.606,16.874-20.755,3.608-10.981-4.848-21.835-9.232-31.36-3.376,10.645-6.544,22.427-11.4,33.045-3.064,5.865-17.6,23.249-25.392,12.87-5.99-8.642,11.764-21.31,15.734-27.046,5.741-9.007,10.778-23.489,9.82-33.636-1.348-13.918-16.065-18.617-27.616-22.118,4.438,13.057,9.183,27.821,6.663,41.55-1.247,6.127-4.874,14.016-11,17.34-7.076,3.839-12.783.259-9.979-8.661,3.373-10.725,10.578-25.37,7.1-41.256-3.449-17.367-16.738-19.078-31.581-22.871-14.178-3.321-27.876-7.32-37.118-19.211,3.345,10.307,4.42,20.058-5.909,28.353a54.165,54.165,0,0,0-11.2,12.208c-3.61,4.5-2.467,10.778-.626,16.045,4.563,12.147,17.083,12.829,24.422,22.408,2.675,3.343,4.406,8.045-.516,10.119-4.707,1.737-11.89-3.74-15.268-6.07-9.417-8.028-16.5-19.422-22.811-29.78-3.317,7.68-8.692,15.443-9.868,23.619-1.423,9.991,6.987,17.314,13.7,23.466,7.157,6.958,16.222,9.739,25.744,11.841,5.555,1.35,25.905,2.96,21.517,12.9-4.258,9.652-15.89,4.535-23.3,2.77-9.862-2.348-17.231-8.2-25.119-14.329-3.375-2.631-22.921-22.061-21.405-25.306C1727.22,464.1,1719.624,480.3,1726.807,500.747Z" transform="translate(0 0)" fill="#f8ddd0"/>
        <g id="Group_48-2" data-name="Group 48" transform="translate(1785.478 389.602)">
          <path id="Path_37-2" data-name="Path 37" d="M1856.471,406.158c8.056,10.132,13.717,21.862,18.586,33.788,2.333,5.719,4.473,11.516,6.624,17.3,2.246,6.042,4.991,11.85,7.565,17.753,2.755,6.321,4.6,12.962,6.964,19.435,2.42,6.628,4.9,13.232,7.281,19.876,4.716,13.184,9.455,26.5,13.459,39.919a88.227,88.227,0,0,0,6.285,16.477c.268.5,1.03.057.762-.445-3.256-6.108-5.134-12.743-7.115-19.339-2.009-6.692-4.458-13.312-6.746-19.916-4.633-13.368-9.41-26.665-14.225-39.97-2.183-6.029-3.963-12.085-6.552-17.965-2.744-6.229-5.467-12.408-7.842-18.791-4.276-11.5-8.683-22.982-14.555-33.775a103.439,103.439,0,0,0-9.867-14.976c-.354-.446-.974.184-.624.624Z" transform="translate(-1856.367 -405.381)" fill="#f8ddd0"/>
        </g>
        <g id="Group_49-2" data-name="Group 49" transform="translate(1838.783 432.261)">
          <path id="Path_38-2" data-name="Path 38" d="M2001.911,497.425c.755,6.095-.562,12.127-2.678,17.827a68.673,68.673,0,0,1-3.946,8.369c-1.571,2.949-4.144,5.335-6.259,7.885-3.973,4.79-7.932,9.685-11.722,14.619a32.6,32.6,0,0,0-6.444,15.749c-.076.563.809.556.883,0,.911-6.868,3.929-12.375,8.275-17.651,4.216-5.119,8.166-10.449,12.524-15.447a44.306,44.306,0,0,0,7.8-13.99,37.215,37.215,0,0,0,2.449-17.363c-.069-.557-.953-.564-.883,0Z" transform="translate(-1970.858 -497.005)" fill="#f8ddd0"/>
        </g>
        <g id="Group_50-2" data-name="Group 50" transform="translate(1752.241 461.562)">
          <path id="Path_39-2" data-name="Path 39" d="M1785.2,560.753c5.085,2.536,9.281,6.306,14.063,9.3a73.258,73.258,0,0,0,16.018,7.214c5.859,1.953,11.771,3.755,17.608,5.774,6.055,2.093,11.664,5.313,17.369,8.18.507.255.955-.506.445-.762-5.071-2.55-10.052-5.277-15.317-7.417-5.921-2.406-12.185-4.1-18.255-6.093a81.682,81.682,0,0,1-16.729-7.235c-5.077-3.03-9.428-7.068-14.756-9.726-.508-.253-.955.508-.445.762Z" transform="translate(-1784.98 -559.94)" fill="#f8ddd0"/>
        </g>
      </g>
      <path id="Path_40" data-name="Path 40" d="M1186.681,824.445c-7.309,14.025-33.283,21.783-47.845,21.6-18.011-.213-38.466-8.778-56.475-4.978-6.882,1.446-13.928,4.109-11.688,11.265,1.979,6.334,8.55,9.918,14.033,12.7,6.888,3.5,14.486,6.745,22.13,6.945,8.682.223,16.6-3.34,25.075-4.648a125.068,125.068,0,0,0,33.539-9.93c6.389-2.864,14.827-5.154,20.047-9.944,6.182,11.989-13.272,33.044-20.37,41.526-8.623,10.358-20.684,22.194-35.158,21.947-13.208-.219-28.385-6.611-39.416-13.507-5.59-3.5-39.191-27.472-35.826-11.276,2.442,11.811,16.15,22.021,25.989,26.834,15.735,7.683,35.073,16.333,52.466,18.514-1.693,6.286-11.637,11.379-17.013,14.783-9.381,5.936-16.646,11.2-27.938,12.556-14.077,1.7-26.824-6.67-36.129-16.7-5.084-5.484-17.8-36.182-26.479-33.127-11.781,4.159,2.488,27.407,6.251,32.4,4.2,5.57,8.93,10.495,13.473,15.81,4.778,5.57,7.234,13.02,12.124,18.367-.4-.429-15.234.8-17.06.565-22.5-2.875-42.678-17.07-50.829-38.571-4.841-12.762-1.13-22.371-2.148-34.957-1.464-18.185-18.839-2.011-28.121,1.064-15.023,4.981-28.292,7.654-43.151-.091-20.225-10.53-29.116-33.349-29.242-54.677-.042-8.191-2.951-22.459,2.092-29.3,3.561,3.524,6.221,7.51,9.264,11.628,6.019,8.162,24.287,23.366,35.285,18.281,12.5-5.768-6.351-23.063-11.623-29.036-14.387-16.323-29.011-28.79-16.442-51.22,1.162-2.081,8.818-10.684,8.435-12.618,2.789,13.982,8.087,26,15.347,37.742,6.147,9.507,22.617,29.925,36.04,24.612,13.978-5.569-11.72-27.677-16.466-32.99-8.108-9.218-18.722-22.083-20.943-34.942-3.065-17.33,12.032-31.862,20.7-45.273,2.787,16.777,5.011,35.224,10.03,52.277,3.351,9.5,21.5,38.859,35.491,24.9,10.9-11.733-13.122-34.671-17.867-44.176-6.7-14.82-11.161-37.742-7.519-52.83,5.044-20.688,28.247-24.584,46.417-27.362-9.519,18.723-19.867,39.951-19.041,61.191.555,9.5,4.314,22.183,12.837,28.52,9.833,7.32,19.212,3.159,16.914-10.893-2.763-16.9-10.452-40.531-1.773-63.729,8.958-25.434,29.36-25.135,52.555-27.639,22.091-1.939,43.6-5,60.11-20.925-7.275,14.812-11,29.278,2.77,44.018a82.558,82.558,0,0,1,14.247,20.828c4.467,7.559,1.385,16.781-2.527,24.321-9.509,17.32-28.527,15.64-41.665,28.491-4.758,4.459-8.384,11.172-1.409,15.366,6.716,3.638,18.73-3.061,24.325-5.845,15.933-10.064,29.085-25.7,40.834-39.954,3.334,12.3,9.758,25.162,9.76,37.742-.016,15.369-14.276,24.584-25.734,32.4-12.3,8.941-26.56,11.169-41.369,12.277-8.668.833-39.693-1.145-35.226,14.789,4.327,15.468,22.97,10.272,34.516,9.218,15.373-1.405,27.751-8.637,40.962-16.165,5.66-3.233,39.328-28.293,37.745-33.51C1193.99,769.109,1201.935,795.173,1186.681,824.445Z" transform="translate(-968.889 113.638)" fill="#f8ddd0"/>
      <g id="Group_59" data-name="Group 59" transform="translate(76.773 381.994) rotate(1)" opacity="0.5">
        <g id="Group_52" data-name="Group 52">
          <path id="Path_41" data-name="Path 41" d="M1936.618,202.709c-5.692-8.1-6.574-18.425-10.753-27.258a165.534,165.534,0,0,0-18.365-29.417c-13.363-17.521-28.349-35.287-45.414-49.307-8.057-6.62-17.364-11.208-25.948-17.052a151.54,151.54,0,0,1-25.282-22.2c-15.815-16.954-32.578-34.486-43.954-54.818a.948.948,0,0,0-1.636.958c10.816,19.332,26.508,35.16,41.043,51.662a166.872,166.872,0,0,0,22.794,21.61c8.495,6.595,18.115,11.308,26.85,17.512,9.366,6.653,17.468,15.009,25.179,23.47,7.88,8.646,15.561,17.522,22.829,26.686a163.362,163.362,0,0,1,19.643,30.672c4.4,9.175,5.457,20.021,11.377,28.443.7.992,2.343.046,1.637-.957Z" fill="#ff9ead"/>
        </g>
        <g id="Group_53" data-name="Group 53">
          <path id="Path_42" data-name="Path 42" d="M1846.048,85.908c-14.678-7.716-22.356-24.513-28.818-38.956-8.373-18.71-12.748-38.813-20.935-57.573l-1.489,1.15c16.142,14.356,32.951,29.382,42.219,49.314,4.358,9.373,5.324,19.1,6.574,29.228.967,7.842,2.476,15.768,7.463,22.118.756.961,2.087-.391,1.341-1.341-6.33-8.06-6.711-19.135-7.856-28.893a74.682,74.682,0,0,0-7.166-24.752c-9.224-18.817-25.846-33.328-41.235-47.015a.952.952,0,0,0-1.488,1.149c8.353,19.142,12.905,39.627,21.451,58.729,6.435,14.379,14.4,30.815,28.983,38.478,1.08.569,2.039-1.068.956-1.636Z" fill="#ff9ead"/>
        </g>
        <g id="Group_54" data-name="Group 54">
          <path id="Path_43" data-name="Path 43" d="M1883.691,118.055c-9.181-11.695-26.045-15.575-39.749-18.622-9.644-2.145-19.392-4.011-28.961-6.469-9.464-2.432-18.029-7.428-26.7-11.76a.958.958,0,0,0-1.392,1.07c1.629,8.724,10.648,15.531,17.179,20.648a116.993,116.993,0,0,0,27.629,15.691c10.437,4.322,20.922,5.074,32.04,5.651,10.535.546,23.413.959,31.261,9.038.854.879,2.192-.464,1.341-1.341-6.206-6.389-15.248-8.036-23.755-8.953-10.424-1.124-20.932-.591-31.172-3.139-11.5-2.86-22.985-8.831-32.583-15.73-7.276-5.23-18.346-12.914-20.111-22.369l-1.392,1.071c6.979,3.486,13.822,7.225,21.123,10.015,8.926,3.412,18.758,4.838,28.068,6.88,15.456,3.389,35.376,6.334,45.839,19.66.755.961,2.087-.391,1.34-1.341Z" fill="#ff9ead"/>
        </g>
        <g id="Group_55" data-name="Group 55">
          <path id="Path_44" data-name="Path 44" d="M1907.732,146.166c-12.578-13.919-20.7-31.994-25.772-49.895-2.819-9.933-3.9-20.2-5.689-30.34-1.778-10.033-7.328-18.911-8.5-29.14l-1.766.478c9.983,20.6,24.051,39,32.832,60.219,8.026,19.386,5.83,41.428,14.971,60.432.529,1.1,2.164.139,1.636-.957-9.27-19.276-7.235-41.758-15.408-61.5-8.624-20.833-22.587-38.908-32.4-59.148-.4-.821-1.873-.457-1.766.479,1.13,9.863,5.789,18.626,8.237,28.147,2.811,10.926,3.307,22.277,6.4,33.192,5.028,17.726,13.452,35.627,25.876,49.376.822.91,2.159-.436,1.341-1.34Z" fill="#ff9ead"/>
        </g>
        <g id="Group_56" data-name="Group 56">
          <path id="Path_45" data-name="Path 45" d="M1928.885,177.866c-11.811-9.167-22.35-19.217-36.8-24.113-17.491-5.926-36.185-7.141-53.69-13.108-.939-.32-1.541.93-.922,1.585,12.97,13.734,25.279,28.384,43.527,35.067,8.84,3.237,17.827,3.7,27.121,3.63,9.826-.075,21.25-.356,28.906,6.813.89.835,2.235-.5,1.34-1.341-6.116-5.726-14.35-6.939-22.42-7.3-9.866-.436-19.316.371-29.029-1.992-20.609-5.017-34.194-21.49-48.1-36.221q-.461.792-.922,1.584c16.437,5.6,33.811,7.293,50.455,12.1,15.655,4.519,26.651,14.9,39.2,24.636.954.74,2.306-.592,1.341-1.341Z" fill="#ff9ead"/>
        </g>
        <g id="Group_57" data-name="Group 57">
          <path id="Path_46" data-name="Path 46" d="M1796.676,42.988c-14.148-2.511-23.577-18.261-31.12-29.116-9.863-14.2-11.887-31.521-20.461-46.3l-1.488,1.148c9.922,11.092,21.035,21.058,30.781,32.307a94.232,94.232,0,0,1,20.964,41.625c.269,1.193,2.1.687,1.83-.5a96.421,96.421,0,0,0-19.835-40.541c-9.948-12.158-21.931-22.526-32.4-34.227-.731-.818-2.02.232-1.488,1.149,4.888,8.428,7.453,17.789,10.653,26.923a90.257,90.257,0,0,0,11.6,21.961c7.353,10.581,16.762,24.971,30.456,27.4,1.195.212,1.708-1.615.5-1.828Z" fill="#ff9ead"/>
        </g>
        <g id="Group_58" data-name="Group 58">
          <path id="Path_47" data-name="Path 47" d="M1812.389,59.2a315.838,315.838,0,0,0-40.174-19.092,181.143,181.143,0,0,1-21.888-10.767c-6.544-3.708-12.192-8.908-18.022-13.607-.931-.751-2.215.446-1.341,1.34,6.789,6.956,12.159,15.1,18.637,22.323a65.016,65.016,0,0,0,20.548,14.921c8.655,4.081,17.87,6.027,27.279,7.367,5.911.841,16.415.825,20.45,5.8.77.95,2.1-.4,1.34-1.341-3.409-4.2-10.583-4.7-15.523-5.432-9.369-1.392-18.154-2.953-27.163-5.888a61.85,61.85,0,0,1-24.492-15.59c-7.158-7.331-12.57-16.16-19.735-23.5q-.669.671-1.341,1.34c5.163,4.161,10.193,8.478,15.687,12.2,6.667,4.521,14.189,8,21.557,11.2,14.711,6.382,29.281,12.353,43.225,20.361a.948.948,0,0,0,.956-1.636Z" fill="#ff9ead"/>
        </g>
      </g>
      <g id="Group_62" data-name="Group 62" transform="matrix(-0.966, 0.259, -0.259, -0.966, 1851.734, -347.43)" opacity="0.5">
        <g id="Group_52-2" data-name="Group 52">
          <path id="Path_41-2" data-name="Path 41" d="M1936.618,202.709c-5.692-8.1-6.574-18.425-10.753-27.258a165.534,165.534,0,0,0-18.365-29.417c-13.363-17.521-28.349-35.287-45.414-49.307-8.057-6.62-17.364-11.208-25.948-17.052a151.54,151.54,0,0,1-25.282-22.2c-15.815-16.954-32.578-34.486-43.954-54.818a.948.948,0,0,0-1.636.958c10.816,19.332,26.508,35.16,41.043,51.662a166.872,166.872,0,0,0,22.794,21.61c8.495,6.595,18.115,11.308,26.85,17.512,9.366,6.653,17.468,15.009,25.179,23.47,7.88,8.646,15.561,17.522,22.829,26.686a163.362,163.362,0,0,1,19.643,30.672c4.4,9.175,5.457,20.021,11.377,28.443.7.992,2.343.046,1.637-.957Z" fill="#ff9ead"/>
        </g>
        <g id="Group_53-2" data-name="Group 53">
          <path id="Path_42-2" data-name="Path 42" d="M1846.048,85.908c-14.678-7.716-22.356-24.513-28.818-38.956-8.373-18.71-12.748-38.813-20.935-57.573l-1.489,1.15c16.142,14.356,32.951,29.382,42.219,49.314,4.358,9.373,5.324,19.1,6.574,29.228.967,7.842,2.476,15.768,7.463,22.118.756.961,2.087-.391,1.341-1.341-6.33-8.06-6.711-19.135-7.856-28.893a74.682,74.682,0,0,0-7.166-24.752c-9.224-18.817-25.846-33.328-41.235-47.015a.952.952,0,0,0-1.488,1.149c8.353,19.142,12.905,39.627,21.451,58.729,6.435,14.379,14.4,30.815,28.983,38.478,1.08.569,2.039-1.068.956-1.636Z" fill="#ff9ead"/>
        </g>
        <g id="Group_54-2" data-name="Group 54">
          <path id="Path_43-2" data-name="Path 43" d="M1883.691,118.055c-9.181-11.695-26.045-15.575-39.749-18.622-9.644-2.145-19.392-4.011-28.961-6.469-9.464-2.432-18.029-7.428-26.7-11.76a.958.958,0,0,0-1.392,1.07c1.629,8.724,10.648,15.531,17.179,20.648a116.993,116.993,0,0,0,27.629,15.691c10.437,4.322,20.922,5.074,32.04,5.651,10.535.546,23.413.959,31.261,9.038.854.879,2.192-.464,1.341-1.341-6.206-6.389-15.248-8.036-23.755-8.953-10.424-1.124-20.932-.591-31.172-3.139-11.5-2.86-22.985-8.831-32.583-15.73-7.276-5.23-18.346-12.914-20.111-22.369l-1.392,1.071c6.979,3.486,13.822,7.225,21.123,10.015,8.926,3.412,18.758,4.838,28.068,6.88,15.456,3.389,35.376,6.334,45.839,19.66.755.961,2.087-.391,1.34-1.341Z" fill="#ff9ead"/>
        </g>
        <g id="Group_55-2" data-name="Group 55">
          <path id="Path_44-2" data-name="Path 44" d="M1907.732,146.166c-12.578-13.919-20.7-31.994-25.772-49.895-2.819-9.933-3.9-20.2-5.689-30.34-1.778-10.033-7.328-18.911-8.5-29.14l-1.766.478c9.983,20.6,24.051,39,32.832,60.219,8.026,19.386,5.83,41.428,14.971,60.432.529,1.1,2.164.139,1.636-.957-9.27-19.276-7.235-41.758-15.408-61.5-8.624-20.833-22.587-38.908-32.4-59.148-.4-.821-1.873-.457-1.766.479,1.13,9.863,5.789,18.626,8.237,28.147,2.811,10.926,3.307,22.277,6.4,33.192,5.028,17.726,13.452,35.627,25.876,49.376.822.91,2.159-.436,1.341-1.34Z" fill="#ff9ead"/>
        </g>
        <g id="Group_56-2" data-name="Group 56">
          <path id="Path_45-2" data-name="Path 45" d="M1928.885,177.866c-11.811-9.167-22.35-19.217-36.8-24.113-17.491-5.926-36.185-7.141-53.69-13.108-.939-.32-1.541.93-.922,1.585,12.97,13.734,25.279,28.384,43.527,35.067,8.84,3.237,17.827,3.7,27.121,3.63,9.826-.075,21.25-.356,28.906,6.813.89.835,2.235-.5,1.34-1.341-6.116-5.726-14.35-6.939-22.42-7.3-9.866-.436-19.316.371-29.029-1.992-20.609-5.017-34.194-21.49-48.1-36.221q-.461.792-.922,1.584c16.437,5.6,33.811,7.293,50.455,12.1,15.655,4.519,26.651,14.9,39.2,24.636.954.74,2.306-.592,1.341-1.341Z" fill="#ff9ead"/>
        </g>
        <g id="Group_57-2" data-name="Group 57">
          <path id="Path_46-2" data-name="Path 46" d="M1796.676,42.988c-14.148-2.511-23.577-18.261-31.12-29.116-9.863-14.2-11.887-31.521-20.461-46.3l-1.488,1.148c9.922,11.092,21.035,21.058,30.781,32.307a94.232,94.232,0,0,1,20.964,41.625c.269,1.193,2.1.687,1.83-.5a96.421,96.421,0,0,0-19.835-40.541c-9.948-12.158-21.931-22.526-32.4-34.227-.731-.818-2.02.232-1.488,1.149,4.888,8.428,7.453,17.789,10.653,26.923a90.257,90.257,0,0,0,11.6,21.961c7.353,10.581,16.762,24.971,30.456,27.4,1.195.212,1.708-1.615.5-1.828Z" fill="#ff9ead"/>
        </g>
        <g id="Group_58-2" data-name="Group 58">
          <path id="Path_47-2" data-name="Path 47" d="M1812.389,59.2a315.838,315.838,0,0,0-40.174-19.092,181.143,181.143,0,0,1-21.888-10.767c-6.544-3.708-12.192-8.908-18.022-13.607-.931-.751-2.215.446-1.341,1.34,6.789,6.956,12.159,15.1,18.637,22.323a65.016,65.016,0,0,0,20.548,14.921c8.655,4.081,17.87,6.027,27.279,7.367,5.911.841,16.415.825,20.45,5.8.77.95,2.1-.4,1.34-1.341-3.409-4.2-10.583-4.7-15.523-5.432-9.369-1.392-18.154-2.953-27.163-5.888a61.85,61.85,0,0,1-24.492-15.59c-7.158-7.331-12.57-16.16-19.735-23.5q-.669.671-1.341,1.34c5.163,4.161,10.193,8.478,15.687,12.2,6.667,4.521,14.189,8,21.557,11.2,14.711,6.382,29.281,12.353,43.225,20.361a.948.948,0,0,0,.956-1.636Z" fill="#ff9ead"/>
        </g>
      </g>
      <g id="Group_47" data-name="Group 47" transform="translate(240.684 682.042) rotate(-18)" opacity="0.5">
        <g id="Group_40" data-name="Group 40">
          <path id="Path_28" data-name="Path 28" d="M1445.12,886.057c-3.271-12.97,1.174-26.376-.377-39.509a261.506,261.506,0,0,0-8.053-42.1c-3.879-13.5-8.711-26.709-13.55-39.884a316.26,316.26,0,0,0-15.175-35.681c-6.161-11.993-14.386-21.978-22.365-32.724a187.108,187.108,0,0,1-18.984-32.073c-5.965-12.693-10.438-26.072-15.4-39.176-5.181-13.677-10.15-27.44-13.779-41.623a172.98,172.98,0,0,1-3.714-19c-.168-1.207-1.995-.69-1.828.5,4.006,28.7,15.686,55.638,25.729,82.61a218.606,218.606,0,0,0,15.634,33.484c6.483,11.18,14.754,20.787,22.3,31.2,15.923,21.957,24.675,48.91,33.392,74.321a299.416,299.416,0,0,1,11.7,42.772,166.125,166.125,0,0,1,2.565,21.823c.334,6.806-.687,13.659-1.071,20.442a49.93,49.93,0,0,0,1.148,15.124.949.949,0,0,0,1.828-.5Z" fill="#ff9ead"/>
        </g>
        <g id="Group_41" data-name="Group 41">
          <path id="Path_29" data-name="Path 29" d="M1391.1,701.078c-14.214-16.162-16.2-39.93-17.3-60.474-1.4-26.174,2.86-52.174,1.749-78.325l-1.767.478c12.459,24.307,25.407,49.678,27.754,77.328,1.086,12.8-1.48,24.442-4.832,36.69-2.834,10.354-5.407,21.242-2.15,31.8.359,1.165,2.19.669,1.828-.5-3.769-12.221.53-24.818,3.758-36.662a92.592,92.592,0,0,0,2.8-36.173c-3.09-26.105-15.7-50.373-27.521-73.438a.953.953,0,0,0-1.766.478c1.168,27.5-3.2,54.8-1.52,82.341,1.215,19.883,3.955,42.255,17.627,57.8.809.921,2.145-.426,1.34-1.341Z" fill="#ff9ead"/>
        </g>
        <g id="Group_42" data-name="Group 42">
          <path id="Path_30" data-name="Path 30" d="M1423.571,762.868c-5.365-7.946-10.326-16.177-16.4-23.614-7.367-9.019-16.651-15.463-26.246-21.867-11.251-7.511-23.111-14.52-33.779-22.844-9.218-7.192-16.615-16.418-24.441-25.021a.953.953,0,0,0-1.584.418c-2.18,11,5.246,23.224,10.558,32.275a148.551,148.551,0,0,0,27.873,33.957c10.584,9.722,22.993,15.278,35.874,21.2,11.879,5.464,26.361,12.09,31.691,24.951.461,1.113,2.3.626,1.828-.5-4.323-10.435-14.132-16.738-23.754-21.8-11.3-5.944-23.492-10.092-34.171-17.179-13.434-8.917-25.32-22.261-34.077-35.726a143.835,143.835,0,0,1-9.5-16.875c-2.778-5.869-5.81-13.17-4.5-19.794l-1.584.418c7.51,8.257,14.645,16.85,23.229,24.042,9.084,7.611,19.69,13.7,29.551,20.245,10.273,6.822,20.634,13.316,29.07,22.432,7.308,7.9,12.728,17.367,18.723,26.243.68,1.007,2.324.061,1.637-.956Z" fill="#ff9ead"/>
        </g>
        <g id="Group_43" data-name="Group 43">
          <path id="Path_31" data-name="Path 31" d="M1438.092,805.915c-11.2-21.742-11.4-47.888-9.349-71.713,1.225-14.2,4.845-27.861,7.585-41.8,2.573-13.089,0-26.546,3.477-39.572l-1.862-.252c2.264,28.209,9.971,55.7,11.322,84.005.667,14-1.581,27.277-4.623,40.888-2.919,13.062-5.644,26.17-4.554,39.627.1,1.209,1.995,1.22,1.9,0-1.122-13.848,1.845-27.3,4.847-40.736,2.835-12.684,4.753-24.978,4.4-38.007-.792-28.914-9.079-57.007-11.388-85.777a.952.952,0,0,0-1.862-.251c-3.623,13.564-1.137,27.66-3.824,41.33-2.752,14-6.2,27.65-7.424,41.907-2.044,23.69-1.384,49.738,9.725,71.31.56,1.089,2.2.13,1.637-.956Z" fill="#ff9ead"/>
        </g>
        <g id="Group_44" data-name="Group 44">
          <path id="Path_32" data-name="Path 32" d="M1447.421,852.439c-5.243-8.722-9.832-17.835-15.376-26.376a91.7,91.7,0,0,0-20.356-22.009c-17.867-14.125-38.587-24.127-56.035-38.851-.641-.541-1.979-.046-1.584.922,9.563,23.467,17.839,47.966,38.136,64.533,9.165,7.481,19.5,11.8,30.42,15.964,11.568,4.407,25.019,9.6,30.625,21.552.518,1.107,2.153.144,1.637-.956-4.569-9.74-14.217-15.079-23.69-19.19-10.951-4.75-22.144-8.063-32.191-14.706-23.814-15.746-32.845-42.514-43.109-67.7l-1.585.922c16.691,14.085,36.22,24.072,53.7,37.062a93.6,93.6,0,0,1,22.4,23.415c5.641,8.464,10.138,17.662,15.376,26.373a.948.948,0,0,0,1.637-.955Z" fill="#ff9ead"/>
        </g>
        <g id="Group_45" data-name="Group 45">
          <path id="Path_33" data-name="Path 33" d="M1350.85,627.3c-14.8-8.8-19.2-30.266-22.974-45.721a121.709,121.709,0,0,1-3.719-33.515c.4-12.21,1.584-24.316-.345-36.466q-.914.254-1.828.5c6.911,18.413,15.9,35.979,22.523,54.5a120.808,120.808,0,0,1,5.935,60.549c-.191,1.2,1.635,1.71,1.828.5a122.627,122.627,0,0,0-5.034-58.951c-6.486-19.529-16.2-37.849-23.424-57.1a.949.949,0,0,0-1.828.5c2.171,13.676.346,27.446.154,41.19-.154,11.006,2.037,21.3,4.674,31.9,3.756,15.1,8.677,35.188,23.081,43.749a.949.949,0,0,0,.957-1.637Z" fill="#ff9ead"/>
        </g>
        <g id="Group_46" data-name="Group 46">
          <path id="Path_34" data-name="Path 34" d="M1362.211,654.224c-12.194-15.132-25.69-28.848-39.832-42.142a211.575,211.575,0,0,1-19.935-21.539c-6.614-8.222-11.484-17.494-16.735-26.6-.627-1.089-2.106-.135-1.637.955,4.833,11.259,7.418,23.289,11.67,34.755a86.012,86.012,0,0,0,14.779,24.841,99.514,99.514,0,0,0,24.051,20.322c9.89,6.09,20.555,10.822,29.151,18.808.894.832,2.237-.507,1.34-1.34-7.083-6.583-15.541-11.119-23.911-15.833a113.509,113.509,0,0,1-27.355-21.109A84.217,84.217,0,0,1,1296.428,596c-3.78-10.635-6.254-21.661-10.719-32.059l-1.637.955c4.738,8.219,9.146,16.635,14.841,24.252a193.321,193.321,0,0,0,19.633,21.881c14.71,14.433,29.354,28.442,42.325,44.534.767.952,2.1-.4,1.34-1.34Z" fill="#ff9ead"/>
        </g>
      </g>
      <g id="Group_39" data-name="Group 39" transform="translate(-988.555 479.096) rotate(7)" opacity="0.5">
        <g id="Group_32-2" data-name="Group 32">
          <path id="Path_21" data-name="Path 21" d="M915.285,323.314c7.376-9.086,18.612-13.423,27.612-20.553,10.439-8.268,19.576-18.264,27.928-28.592,8.29-10.253,15.767-21.154,23.038-32.143,7.645-11.554,15.258-23.131,21.85-35.33,12.766-23.626,16.456-50.355,28.525-74.307,5.946-11.8,13.379-22.7,20.491-33.808,7.225-11.284,14.408-22.593,22.343-33.4a192.026,192.026,0,0,1,19.962-23.254c.873-.86-.469-2.2-1.34-1.341-18.888,18.594-32.481,41.445-46.788,63.54-14.177,21.9-25.492,44.078-31.761,69.534-6.685,27.139-23.946,51.331-39.405,74.13-15.186,22.4-32.1,45.17-55.308,59.784-6.627,4.173-13.49,8.239-18.488,14.4-.763.941.57,2.29,1.341,1.34Z" fill="#ff9ead"/>
        </g>
        <g id="Group_33" data-name="Group 33">
          <path id="Path_22" data-name="Path 22" d="M1030.142,170.176c4.791-22.307,24.919-38.622,41.721-52.351,19.617-16.031,42.27-27.735,61.922-43.7q-.744-.575-1.489-1.149c-12.255,24.878-25.112,50.893-46.472,69.312-9.868,8.509-21.068,13.3-32.982,18.205-9.966,4.106-20.291,8.759-26.8,17.724-.72.992.926,1.936,1.637.957,7.464-10.275,20.408-14.708,31.7-19.318,10.678-4.359,20.11-9.606,28.877-17.167,20.983-18.093,33.658-44.354,45.679-68.755a.952.952,0,0,0-1.489-1.149c-20.345,16.528-43.715,28.753-64.005,45.406-16.393,13.454-35.455,29.737-40.125,51.483-.256,1.192,1.572,1.7,1.828.5Z" fill="#ff9ead"/>
        </g>
        <g id="Group_34" data-name="Group 34">
          <path id="Path_23" data-name="Path 23" d="M1001.382,230.778c3.137-8.916,6.949-17.617,9.3-26.792,2.765-10.818,2.3-21.764,1.74-32.81-.648-12.736-1.752-25.533-1.864-38.285-.111-12.526,3.115-24.782,5.507-36.987a.959.959,0,0,0-1.393-1.071c-9.814,4.657-15.094,17.5-19.1,26.829a146.04,146.04,0,0,0-10.45,38.987c-1.991,15.36.251,29.233,3.286,44.217,2.768,13.661,6.516,30.417-1.078,43.2a.949.949,0,0,0,1.637.957c6.277-10.563,4.907-23.529,3.045-35.137-2.3-14.339-6.36-28.109-5.933-42.765.436-15.012,4.031-30.457,9.472-44.431,3.941-10.123,9.549-25.219,20.081-30.216q-.7-.534-1.393-1.07c-2.112,10.775-4.683,21.451-5.423,32.437-.846,12.564.772,25.545,1.439,38.1.647,12.21,1.554,24.224-1.1,36.275-2.125,9.651-6.328,18.768-9.6,28.058-.408,1.157,1.425,1.649,1.827.5Z" fill="#ff9ead"/>
        </g>
        <g id="Group_35" data-name="Group 35">
          <path id="Path_24" data-name="Path 24" d="M977.742,264.979c14.94-19.946,33.391-35.9,54.8-48.571,11.4-6.751,24.135-10.811,35.685-17.232,10.719-5.96,19.5-14.771,31.039-19.342l-.922-1.585c-21.484,18.807-39.056,41.653-61.253,59.688-10.97,8.914-23.158,14.9-35.991,20.622-11.893,5.3-23.646,10.906-33.5,19.577-.92.809.427,2.145,1.341,1.34,10.11-8.893,22.289-14.451,34.474-19.885,12.048-5.373,23.321-11.147,33.75-19.3,22.953-17.945,40.652-41.554,62.521-60.7.69-.6-.037-1.935-.922-1.584-11.2,4.433-20.081,12.539-30.224,18.787-12.115,7.461-26.117,11.561-38.4,18.835A184.328,184.328,0,0,0,976.1,264.022c-.734.98.914,1.923,1.637.957Z" fill="#ff9ead"/>
        </g>
        <g id="Group_36" data-name="Group 36">
          <path id="Path_25" data-name="Path 25" d="M943.756,304.9c3.72-9.044,8.075-17.821,11.575-26.955a91.534,91.534,0,0,0,5.872-29.61c.857-23.1-3.643-46.026-2.229-69.147a.954.954,0,0,0-1.767-.478c-12.6,20.8-26.687,41.155-28.8,66.085-1.029,12.139,1.386,23.521,4.675,35.1,3.523,12.395,8.007,26.91,1.534,39.086-.574,1.079,1.063,2.037,1.637.957,5.152-9.689,3.651-20.663,1.239-30.929-2.9-12.319-7.039-23.749-7.4-36.551-.779-27.581,15.087-50.232,28.75-72.788l-1.766-.479c-1.378,22.532,2.588,44.891,2.274,67.408a91.822,91.822,0,0,1-5.849,30.845c-3.388,9.167-7.858,17.919-11.575,26.955-.466,1.131,1.369,1.619,1.828.5Z" fill="#ff9ead"/>
        </g>
        <g id="Group_37" data-name="Group 37">
          <path id="Path_26" data-name="Path 26" d="M1066.769,93.289c-1.011-10.029,4.027-19.438,9.244-27.636,5.089-8,11.281-15.217,17.318-22.5,14.012-16.9,34.919-25.053,50.072-40.616l-1.489-1.15c-23.471,36.245-46.235,73.154-78.89,102.03-.918.811.429,2.147,1.341,1.341,32.777-28.984,55.628-66.033,79.186-102.413.593-.915-.744-1.914-1.489-1.149-8.106,8.326-17.952,14.424-27.51,20.905a115.742,115.742,0,0,0-24.508,22.051c-11,13.2-27.045,30.556-25.171,49.135.121,1.2,2.019,1.216,1.9,0Z" fill="#ff9ead"/>
        </g>
        <g id="Group_38" data-name="Group 38">
          <path id="Path_27" data-name="Path 27" d="M1051.912,118.481a392.881,392.881,0,0,0,9.907-55.829,211.706,211.706,0,0,1,5.534-30.129c2.649-10.213,7.155-19.66,11.333-29.309.473-1.092-1.008-2.042-1.637-.957-5.913,10.186-13.6,19.144-20.14,28.912a85.894,85.894,0,0,0-12.647,31.326c-2.276,11.808-1.88,23.85-.382,35.708,1.176,9.312,4.728,21.4.411,30.236-.535,1.1,1.1,2.056,1.637.957,3.567-7.3,1.85-15.679.819-23.381-1.664-12.455-2.58-24.3-1.511-36.846s5.733-25.04,12.4-35.64c6.559-10.432,14.853-19.636,21.052-30.315l-1.637-.957c-3.548,8.195-7.394,16.26-10.151,24.77-3.131,9.664-4.868,19.924-6.269,29.963-2.87,20.564-5.335,40.826-10.545,60.987a.949.949,0,0,0,1.828.5Z" fill="#ff9ead"/>
        </g>
      </g>
    </g>
  </g>
</svg>
